<svg width="160" height="160" viewBox="0 0 160 160" fill="none" xmlns="http://www.w3.org/2000/svg" role="img" aria-label="ChaiShopper teapot mark">
  
  <path d="M70 40c0-8 8-8 8-16s-8-8-8-16" stroke="#C8A96E" stroke-width="3" stroke-linecap="round" opacity="0.8"></path>
  <path d="M88 40c0-8 8-8 8-16s-8-8-8-16" stroke="#C8A96E" stroke-width="3" stroke-linecap="round" opacity="0.55"></path>
  
  <path d="M44 86c0-19 16-34 36-34s36 15 36 34c0 6-2 11-5 16H49c-3-5-5-10-5-16Z" stroke="#C8A96E" stroke-width="4" fill="none" stroke-linejoin="round"></path>
  
  <path d="M80 52v-8" stroke="#C8A96E" stroke-width="4" stroke-linecap="round"></path>
  <circle cx="80" cy="42" r="4" fill="#C8A96E"></circle>
  
  <path d="M44 70c-12-2-22 2-28 10" stroke="#C8A96E" stroke-width="4" stroke-linecap="round"></path>
  
  <path d="M116 66c12 0 18 8 18 18" stroke="#C8A96E" stroke-width="4" stroke-linecap="round" fill="none"></path>
  
  <path d="M50 118h60" stroke="#C8A96E" stroke-width="4" stroke-linecap="round"></path>
</svg>