<svg width="84" height="110" viewBox="0 0 84 110" fill="none" xmlns="http://www.w3.org/2000/svg" role="img" aria-label="ChaiShopper map marker">
  
  <path d="M42 4C22 4 6 19 6 39c0 25 30 58 35 64 1 1 3 1 4 0 5-6 35-39 35-64C80 19 64 4 42 4Z" fill="#C8A96E"></path>
  <path d="M42 4C22 4 6 19 6 39c0 25 30 58 35 64 1 1 3 1 4 0 5-6 35-39 35-64C80 19 64 4 42 4Z" stroke="#0F0E0C" stroke-opacity="0.25" stroke-width="2"></path>
  
  <g stroke="#0F0E0C" stroke-width="3" stroke-linecap="round" stroke-linejoin="round" fill="none">
    <path d="M24 44c0-10 8-18 18-18s18 8 18 18c0 3-1 6-3 8H27c-2-2-3-5-3-8Z"></path>
    <path d="M24 38c-6-1-11 1-14 5"></path>
    <path d="M60 36c6 0 9 4 9 9"></path>
    <path d="M42 26v-4"></path>
  </g>
</svg>